<svg xmlns="http://www.w3.org/2000/svg" width="15" height="15" viewBox="0 0 15 15" fill="none">
  <path fill-rule="evenodd" clip-rule="evenodd" d="M12.3295 2.92373C12.5953 3.18942 12.8027 3.50767 12.9384 3.85811C13.0949 4.27388 13.1784 4.71355 13.1852 5.15773C13.218 5.71872 13.218 5.90045 13.218 7.33244V7.33256C13.218 8.76466 13.2104 8.94346 13.1852 9.50739C13.1764 9.94587 13.0938 10.3785 12.9396 10.7888C12.8037 11.1392 12.5963 11.4575 12.3305 11.7232C12.0647 11.989 11.7465 12.1964 11.3961 12.3323C10.9859 12.486 10.5526 12.569 10.1147 12.5779C9.55483 12.6102 9.37135 12.6102 7.93983 12.6102C6.50831 12.6102 6.32952 12.6026 5.765 12.5779C5.32615 12.5635 4.89298 12.4743 4.48414 12.3141C4.13362 12.1785 3.81526 11.9712 3.54939 11.7055C3.28353 11.4399 3.076 11.1217 2.94007 10.7712C2.7859 10.3603 2.70324 9.9277 2.69445 9.48921C2.66162 8.92822 2.66162 8.7459 2.66162 7.31439C2.66162 5.88228 2.66924 5.70349 2.69445 5.13956C2.70302 4.70157 2.78608 4.26823 2.94007 3.85811C3.07562 3.50757 3.28294 3.18924 3.54875 2.92354C3.81455 2.65784 4.13296 2.45063 4.48355 2.31522C4.89317 2.16081 5.32616 2.07754 5.76383 2.06901C6.32366 2.03735 6.50714 2.03735 7.93866 2.03735C9.37017 2.03735 9.54897 2.04439 10.1135 2.06901C10.5515 2.078 10.9848 2.16125 11.3949 2.31522C11.7454 2.45079 12.0638 2.65805 12.3295 2.92373ZM12.0421 10.4354C12.159 10.1184 12.2206 9.78367 12.2244 9.44584V9.44642H12.2309C12.2561 8.88601 12.2561 8.73242 12.2561 7.30442C12.2561 5.87584 12.2496 5.71932 12.2244 5.16184C12.219 4.82779 12.1573 4.49705 12.0421 4.18346C11.954 3.95546 11.8192 3.74841 11.6464 3.57558C11.4736 3.40275 11.2665 3.26796 11.0385 3.17987C10.7251 3.06326 10.3939 3.00158 10.0596 2.99756C9.49269 2.96532 9.34614 2.96532 7.91755 2.96532C6.48897 2.96532 6.33245 2.97235 5.77497 2.99756C5.44084 3.00223 5.10997 3.06388 4.79659 3.17987C4.33407 3.35691 3.96769 3.72094 3.7889 4.18346C3.67204 4.50025 3.61038 4.83475 3.60659 5.17239C3.57552 5.74042 3.57552 5.88639 3.57552 7.31497C3.57552 8.74297 3.58138 8.90008 3.60659 9.45697C3.61205 9.79102 3.67368 10.1218 3.7889 10.4354C3.87732 10.6637 4.0127 10.871 4.18628 11.0438C4.35986 11.2166 4.56778 11.351 4.79659 11.4384C5.10981 11.5549 5.44079 11.6166 5.77497 11.6207C6.34242 11.6529 6.48838 11.6529 7.91755 11.6529C9.34555 11.6529 9.50266 11.6465 10.0596 11.6207C10.3939 11.6163 10.725 11.5547 11.0385 11.4384C11.2665 11.3505 11.4736 11.2158 11.6465 11.0431C11.8193 10.8703 11.9541 10.6633 12.0421 10.4354ZM10.754 5.13254C11.103 5.13254 11.3859 4.84961 11.3859 4.50061C11.3859 4.1516 11.103 3.86868 10.754 3.86868C10.4049 3.86868 10.122 4.1516 10.122 4.50061C10.122 4.84961 10.4049 5.13254 10.754 5.13254ZM7.93575 4.60029C7.21685 4.60029 6.52739 4.88587 6.01905 5.39421C5.51071 5.90255 5.22513 6.59201 5.22513 7.31091C5.22513 8.02981 5.51071 8.71927 6.01905 9.22761C6.52739 9.73595 7.21685 10.0215 7.93575 10.0215C8.65465 10.0215 9.34411 9.73595 9.85245 9.22761C10.3608 8.71927 10.6464 8.02981 10.6464 7.31091C10.6464 6.59201 10.3608 5.90255 9.85245 5.39421C9.34411 4.88587 8.65465 4.60029 7.93575 4.60029ZM7.93575 9.07129C7.46871 9.07129 7.02081 8.88576 6.69056 8.55552C6.36032 8.22527 6.17479 7.77736 6.17479 7.31033C6.17479 6.84329 6.36032 6.39538 6.69056 6.06514C7.02081 5.73489 7.46871 5.54936 7.93575 5.54936C8.40279 5.54936 8.8507 5.73489 9.18094 6.06514C9.51119 6.39538 9.69672 6.84329 9.69672 7.31033C9.69672 7.77736 9.51119 8.22527 9.18094 8.55552C8.8507 8.88576 8.40279 9.07129 7.93575 9.07129Z" fill="#878690"/>
</svg>