<svg xmlns="http://www.w3.org/2000/svg" width="15" height="15" viewBox="0 0 15 15" fill="none">
  <path d="M11.6899 3.1541C10.5937 2.05204 9.13402 1.44824 7.58057 1.44824C4.37988 1.44824 1.77126 4.05686 1.77126 7.25755C1.77126 8.28341 2.04092 9.27997 2.54506 10.1593L1.72437 13.1724L4.80195 12.3634C5.65195 12.8265 6.60747 13.0727 7.58057 13.0727C10.7813 13.0727 13.3899 10.4641 13.3899 7.26341C13.3899 5.70997 12.7861 4.25031 11.6899 3.1541ZM7.58057 12.0879C6.71299 12.0879 5.86299 11.8534 5.1185 11.4138L4.94264 11.3082L3.11368 11.7889L3.60023 10.0069L3.48299 9.82514C3.0023 9.05721 2.74437 8.16617 2.74437 7.25755C2.74437 4.59617 4.91333 2.42721 7.57471 2.42721C8.86437 2.42721 10.0778 2.93135 10.9864 3.84583C11.9009 4.76031 12.3992 5.97376 12.3992 7.26341C12.4109 9.92479 10.242 12.0879 7.58057 12.0879ZM10.2302 8.47686C10.0837 8.40652 9.3685 8.05479 9.23954 8.00204C9.10471 7.95514 9.01092 7.93169 8.91126 8.07238C8.81161 8.21893 8.53609 8.54721 8.45402 8.641C8.37195 8.74066 8.28402 8.75238 8.13747 8.67617C7.99092 8.60583 7.52195 8.44755 6.97092 7.95514C6.53712 7.56824 6.24988 7.09341 6.16195 6.94686C6.07988 6.80031 6.15023 6.7241 6.22643 6.6479C6.29092 6.58341 6.37299 6.4779 6.44333 6.39583C6.51368 6.31376 6.54299 6.24928 6.58988 6.15548C6.63678 6.05583 6.61333 5.97376 6.57816 5.90341C6.54299 5.83307 6.24988 5.1179 6.13264 4.82479C6.0154 4.54341 5.8923 4.57859 5.80437 4.57273C5.71643 4.57273 5.62264 4.57273 5.52299 4.57273C5.42333 4.57273 5.27092 4.6079 5.13609 4.75445C5.00712 4.901 4.63195 5.25273 4.63195 5.9679C4.63195 6.68307 5.15368 7.37479 5.22402 7.46859C5.29437 7.56824 6.24988 9.03376 7.70368 9.661C8.04954 9.81341 8.31919 9.90135 8.53023 9.96583C8.87609 10.0772 9.19264 10.0596 9.44471 10.0244C9.72609 9.98341 10.3064 9.67272 10.4237 9.33273C10.5468 8.99272 10.5468 8.70548 10.5057 8.641C10.4647 8.57652 10.3768 8.54721 10.2302 8.47686Z" fill="#878690"/>
</svg>