<svg xmlns="http://www.w3.org/2000/svg" width="24" height="24" viewBox="0 0 24 24" fill="none">
  <g clip-path="url(#clip0_54_5)">
    <path d="M1.23998 24.0001C0.923837 24.0001 0.607698 23.8798 0.367505 23.6378C-0.114689 23.1556 -0.114689 22.3739 0.367505 21.8917L21.8975 0.361647C22.3797 -0.120549 23.1614 -0.120549 23.6436 0.361647C24.1258 0.843842 24.1258 1.6256 23.6436 2.1081L2.11395 23.6378C1.87195 23.8783 1.55581 24.0001 1.23998 24.0001Z" fill="#100D22"/>
    <path d="M22.7715 24.0001C22.4553 24.0001 22.1395 23.8798 21.899 23.6378L0.367505 2.1081C-0.114689 1.6256 -0.114689 0.843842 0.367505 0.361647C0.8497 -0.120549 1.63146 -0.120549 2.11395 0.361647L23.6436 21.8917C24.1258 22.3739 24.1258 23.1556 23.6436 23.6378C23.4016 23.8783 23.0858 24.0001 22.7715 24.0001Z" fill="#100D22"/>
  </g>
  <defs>
    <clipPath id="clip0_54_5">
      <rect width="24" height="24" fill="white"/>
    </clipPath>
  </defs>
</svg>