<svg xmlns="http://www.w3.org/2000/svg" width="20" height="20" viewBox="0 0 20 20" fill="none">
  <path d="M9.99997 11.1376C9.13266 11.1386 8.29179 10.839 7.62058 10.2897C6.94936 9.7404 6.48929 8.97544 6.31872 8.12506C6.30513 8.03549 6.31117 7.94403 6.33643 7.85702C6.36169 7.77001 6.40557 7.68953 6.46502 7.62116C6.52447 7.55279 6.59807 7.49817 6.68073 7.46107C6.76339 7.42397 6.85313 7.40529 6.94372 7.40632C7.09262 7.40415 7.23739 7.45522 7.35198 7.55032C7.46656 7.64543 7.54342 7.77832 7.56872 7.92507C7.68643 8.48689 7.99389 8.99109 8.43946 9.35299C8.88504 9.71488 9.44157 9.91242 10.0156 9.91242C10.5896 9.91242 11.1462 9.71488 11.5917 9.35299C12.0373 8.99109 12.3448 8.48689 12.4625 7.92507C12.4878 7.77832 12.5646 7.64543 12.6792 7.55032C12.7938 7.45522 12.9386 7.40415 13.0875 7.40632C13.1781 7.40529 13.2678 7.42397 13.3505 7.46107C13.4331 7.49817 13.5067 7.55279 13.5662 7.62116C13.6256 7.68953 13.6695 7.77001 13.6948 7.85702C13.72 7.94403 13.7261 8.03549 13.7125 8.12506C13.5409 8.98073 13.0762 9.74976 12.3986 10.2997C11.7209 10.8495 10.8726 11.1459 9.99997 11.1376Z" fill="#100D22"/>
  <path d="M15.5625 19.3749H4.43753C4.18321 19.3752 3.93148 19.3238 3.69766 19.2238C3.46384 19.1237 3.25282 18.9772 3.07742 18.793C2.90203 18.6089 2.76593 18.3909 2.67742 18.1525C2.5889 17.9141 2.54981 17.6602 2.56253 17.4062L3.06878 6.63115C3.08973 6.14809 3.29648 5.69179 3.64587 5.35755C3.99526 5.0233 4.46026 4.83695 4.94378 4.8374H15.0563C15.5398 4.83695 16.0048 5.0233 16.3542 5.35755C16.7036 5.69179 16.9103 6.14809 16.9313 6.63115L17.4375 17.4062C17.4502 17.6602 17.4112 17.9141 17.3226 18.1525C17.2341 18.3909 17.098 18.6089 16.9226 18.793C16.7472 18.9772 16.5362 19.1237 16.3024 19.2238C16.0686 19.3238 15.8169 19.3752 15.5625 19.3749ZM4.94378 6.09365C4.77802 6.09365 4.61905 6.1595 4.50184 6.27671C4.38463 6.39392 4.31878 6.55289 4.31878 6.71865L3.81253 17.4687C3.80829 17.5533 3.82132 17.638 3.85082 17.7174C3.88033 17.7969 3.92569 17.8696 3.98416 17.9309C4.04262 17.9923 4.11296 18.0412 4.1909 18.0745C4.26884 18.1079 4.35275 18.125 4.43753 18.1249H15.5625C15.6473 18.125 15.7312 18.1079 15.8092 18.0745C15.8871 18.0412 15.9574 17.9923 16.0159 17.9309C16.0744 17.8696 16.1197 17.7969 16.1492 17.7174C16.1787 17.638 16.1918 17.5533 16.1875 17.4687L15.6813 6.69365C15.6813 6.52789 15.6154 6.36892 15.4982 6.25171C15.381 6.1345 15.222 6.06865 15.0563 6.06865L4.94378 6.09365Z" fill="#100D22"/>
  <path d="M13.75 5.46875H12.5V4.375C12.5 3.71196 12.2366 3.07607 11.7678 2.60723C11.2989 2.13839 10.663 1.875 10 1.875C9.33696 1.875 8.70107 2.13839 8.23223 2.60723C7.76339 3.07607 7.5 3.71196 7.5 4.375V5.46875H6.25V4.375C6.25 3.38044 6.64509 2.42661 7.34835 1.72335C8.05161 1.02009 9.00544 0.625 10 0.625C10.9946 0.625 11.9484 1.02009 12.6517 1.72335C13.3549 2.42661 13.75 3.38044 13.75 4.375V5.46875Z" fill="#100D22"/>
</svg>