<svg xmlns="http://www.w3.org/2000/svg" width="20" height="20" viewBox="0 0 20 20" fill="none">
  <path d="M9.99985 11.1376C9.13253 11.1386 8.29167 10.839 7.62046 10.2897C6.94924 9.7404 6.48917 8.97544 6.3186 8.12506C6.305 8.03549 6.31105 7.94403 6.33631 7.85702C6.36157 7.77001 6.40544 7.68953 6.46489 7.62116C6.52435 7.55279 6.59795 7.49817 6.68061 7.46107C6.76327 7.42397 6.853 7.40529 6.9436 7.40632C7.0925 7.40415 7.23727 7.45522 7.35186 7.55032C7.46644 7.64543 7.5433 7.77832 7.5686 7.92507C7.68631 8.48689 7.99377 8.99109 8.43934 9.35299C8.88491 9.71488 9.44145 9.91242 10.0155 9.91242C10.5895 9.91242 11.146 9.71488 11.5916 9.35299C12.0372 8.99109 12.3446 8.48689 12.4624 7.92507C12.4877 7.77832 12.5645 7.64543 12.6791 7.55032C12.7937 7.45522 12.9385 7.40415 13.0874 7.40632C13.1779 7.40529 13.2677 7.42397 13.3503 7.46107C13.433 7.49817 13.5066 7.55279 13.5661 7.62116C13.6255 7.68953 13.6694 7.77001 13.6946 7.85702C13.7199 7.94403 13.7259 8.03549 13.7124 8.12506C13.5408 8.98073 13.0761 9.74976 12.3984 10.2997C11.7208 10.8495 10.8725 11.1459 9.99985 11.1376Z" fill="white"/>
  <path d="M15.5624 19.3749H4.4374C4.18308 19.3752 3.93136 19.3238 3.69754 19.2238C3.46372 19.1237 3.25269 18.9772 3.0773 18.793C2.90191 18.6089 2.76581 18.3909 2.67729 18.1525C2.58878 17.9141 2.54969 17.6602 2.5624 17.4062L3.06865 6.63115C3.08961 6.14809 3.29636 5.69179 3.64575 5.35755C3.99513 5.0233 4.46014 4.83695 4.94366 4.8374H15.0562C15.5397 4.83695 16.0047 5.0233 16.3541 5.35755C16.7035 5.69179 16.9102 6.14809 16.9312 6.63115L17.4374 17.4062C17.4501 17.6602 17.411 17.9141 17.3225 18.1525C17.234 18.3909 17.0979 18.6089 16.9225 18.793C16.7471 18.9772 16.5361 19.1237 16.3023 19.2238C16.0685 19.3238 15.8167 19.3752 15.5624 19.3749ZM4.94366 6.09365C4.77789 6.09365 4.61892 6.1595 4.50171 6.27671C4.3845 6.39392 4.31865 6.55289 4.31865 6.71865L3.8124 17.4687C3.80817 17.5533 3.8212 17.638 3.8507 17.7174C3.88021 17.7969 3.92557 17.8696 3.98404 17.9309C4.0425 17.9923 4.11284 18.0412 4.19078 18.0745C4.26872 18.1079 4.35263 18.125 4.4374 18.1249H15.5624C15.6472 18.125 15.7311 18.1079 15.809 18.0745C15.887 18.0412 15.9573 17.9923 16.0158 17.9309C16.0742 17.8696 16.1196 17.7969 16.1491 17.7174C16.1786 17.638 16.1916 17.5533 16.1874 17.4687L15.6812 6.69365C15.6812 6.52789 15.6153 6.36892 15.4981 6.25171C15.3809 6.1345 15.2219 6.06865 15.0562 6.06865L4.94366 6.09365Z" fill="white"/>
  <path d="M13.75 5.46875H12.5V4.375C12.5 3.71196 12.2366 3.07607 11.7678 2.60723C11.2989 2.13839 10.663 1.875 10 1.875C9.33696 1.875 8.70107 2.13839 8.23223 2.60723C7.76339 3.07607 7.5 3.71196 7.5 4.375V5.46875H6.25V4.375C6.25 3.38044 6.64509 2.42661 7.34835 1.72335C8.05161 1.02009 9.00544 0.625 10 0.625C10.9946 0.625 11.9484 1.02009 12.6517 1.72335C13.3549 2.42661 13.75 3.38044 13.75 4.375V5.46875Z" fill="white"/>
</svg>